<svg width="450" height="300" viewBox="0 0 450 300" xmlns="http://www.w3.org/2000/svg">
<text x="15" y="130" dy="2em" text-anchor="middle" font-family="sans-serif" font-size="16" opacity="1" fill="#000000" transform="rotate(270, 15, 130)">
Density (a.u.)
</text>
<text x="255" y="285" dy="-0.5ex" text-anchor="middle" font-family="sans-serif" font-size="16" opacity="1" fill="#000000">
Average Time (s)
</text>
<polyline fill="none" opacity="1" stroke="#000000" stroke-width="1" points="74,15 74,244 "/>
<text x="65" y="216" dy="0.5ex" text-anchor="end" font-family="sans-serif" font-size="16" opacity="1" fill="#000000">
1
</text>
<polyline fill="none" opacity="1" stroke="#000000" stroke-width="1" points="69,216 74,216 "/>
<text x="65" y="188" dy="0.5ex" text-anchor="end" font-family="sans-serif" font-size="16" opacity="1" fill="#000000">
2
</text>
<polyline fill="none" opacity="1" stroke="#000000" stroke-width="1" points="69,188 74,188 "/>
<text x="65" y="160" dy="0.5ex" text-anchor="end" font-family="sans-serif" font-size="16" opacity="1" fill="#000000">
3
</text>
<polyline fill="none" opacity="1" stroke="#000000" stroke-width="1" points="69,160 74,160 "/>
<text x="65" y="132" dy="0.5ex" text-anchor="end" font-family="sans-serif" font-size="16" opacity="1" fill="#000000">
4
</text>
<polyline fill="none" opacity="1" stroke="#000000" stroke-width="1" points="69,132 74,132 "/>
<text x="65" y="103" dy="0.5ex" text-anchor="end" font-family="sans-serif" font-size="16" opacity="1" fill="#000000">
5
</text>
<polyline fill="none" opacity="1" stroke="#000000" stroke-width="1" points="69,103 74,103 "/>
<text x="65" y="75" dy="0.5ex" text-anchor="end" font-family="sans-serif" font-size="16" opacity="1" fill="#000000">
6
</text>
<polyline fill="none" opacity="1" stroke="#000000" stroke-width="1" points="69,75 74,75 "/>
<text x="65" y="47" dy="0.5ex" text-anchor="end" font-family="sans-serif" font-size="16" opacity="1" fill="#000000">
7
</text>
<polyline fill="none" opacity="1" stroke="#000000" stroke-width="1" points="69,47 74,47 "/>
<text x="65" y="19" dy="0.5ex" text-anchor="end" font-family="sans-serif" font-size="16" opacity="1" fill="#000000">
8
</text>
<polyline fill="none" opacity="1" stroke="#000000" stroke-width="1" points="69,19 74,19 "/>
<polyline fill="none" opacity="1" stroke="#000000" stroke-width="1" points="75,245 434,245 "/>
<text x="224" y="255" dy="2em" text-anchor="middle" font-family="sans-serif" font-size="16" opacity="1" fill="#000000">
5
</text>
<polyline fill="none" opacity="1" stroke="#000000" stroke-width="1" points="224,245 224,250 "/>
<text x="383" y="255" dy="2em" text-anchor="middle" font-family="sans-serif" font-size="16" opacity="1" fill="#000000">
5.5
</text>
<polyline fill="none" opacity="1" stroke="#000000" stroke-width="1" points="383,245 383,250 "/>
<polygon opacity="0.5" fill="#E31A1C" points="212,244 213,244 213,244 213,244 213,244 213,244 214,244 214,244 214,244 214,244 215,244 215,244 215,244 215,244 215,244 216,244 216,243 216,243 216,243 216,243 217,243 217,243 217,243 217,243 218,243 218,243 218,243 218,242 218,242 219,242 219,242 219,242 219,242 220,242 220,241 220,241 220,241 220,241 221,241 221,240 221,240 221,240 222,240 222,240 222,239 222,239 222,239 223,239 223,238 223,238 223,238 224,237 224,237 224,237 224,236 224,236 225,236 225,235 225,235 225,235 226,234 226,234 226,233 226,233 226,233 227,232 227,232 227,231 227,231 228,230 228,230 228,229 228,229 228,228 229,228 229,227 229,227 229,226 230,225 230,225 230,224 230,224 230,223 231,222 231,222 231,221 231,221 232,220 232,219 232,219 232,218 232,217 233,217 233,216 233,215 233,214 234,214 234,213 234,212 234,212 234,211 235,210 235,209 235,209 235,208 236,207 236,206 236,205 236,205 236,204 237,203 237,202 237,201 237,201 238,200 238,199 238,198 238,197 238,196 239,196 239,195 239,194 239,193 240,192 240,191 240,190 240,189 240,188 241,187 241,187 241,186 241,185 242,184 242,183 242,181 242,180 242,179 243,178 243,177 243,176 243,175 244,174 244,173 244,171 244,170 244,169 245,168 245,166 245,165 245,164 246,162 246,161 246,159 246,158 246,156 247,155 247,153 247,152 247,150 248,149 248,147 248,145 248,144 248,142 249,140 249,138 249,137 249,135 250,133 250,131 250,129 250,127 250,125 251,123 251,121 251,119 251,117 251,115 252,113 252,111 252,109 252,107 253,104 253,102 253,100 253,98 253,96 254,94 254,91 254,89 254,87 255,85 255,83 255,80 255,78 255,76 256,74 256,72 256,70 256,67 257,65 257,63 257,61 257,59 257,57 258,55 258,53 258,51 258,50 259,48 259,46 259,44 259,42 259,41 260,39 260,38 260,36 260,34 261,33 261,32 261,30 261,29 261,28 262,27 262,25 262,24 262,23 263,22 263,22 263,21 263,20 263,19 264,19 264,18 264,17 264,17 265,17 265,16 265,16 265,16 265,16 266,16 266,15 266,16 266,16 267,16 267,16 267,16 267,17 267,17 268,17 268,18 268,18 268,19 269,20 269,20 269,21 269,22 269,23 270,24 270,25 270,26 270,27 271,28 271,29 271,30 271,31 271,32 272,34 272,35 272,36 272,38 273,39 273,41 273,42 273,44 273,45 274,47 274,48 274,50 274,51 275,53 275,55 275,56 275,58 275,60 276,62 276,63 276,65 276,67 277,69 277,70 277,72 277,74 277,76 278,78 278,79 278,81 278,83 279,85 279,87 279,88 279,90 279,92 280,94 280,96 280,97 280,99 281,101 281,103 281,105 281,106 281,108 282,110 282,112 282,113 282,115 283,117 283,118 283,120 283,122 283,123 284,125 284,127 284,128 284,130 284,131 285,133 285,134 285,136 285,137 286,139 286,140 286,142 286,143 286,145 287,146 287,147 287,149 287,150 288,151 288,153 288,154 288,155 288,157 289,158 289,159 289,160 289,162 290,163 290,164 290,165 290,166 290,167 291,168 291,170 291,171 291,172 292,173 292,174 292,175 292,176 292,177 293,178 293,179 293,180 293,181 294,182 294,183 294,184 294,185 294,186 295,187 295,188 295,188 295,189 296,190 296,191 296,192 296,193 296,194 297,195 297,196 297,197 297,197 298,198 298,199 298,200 298,201 298,202 299,202 299,203 299,204 299,205 300,206 300,207 300,207 300,208 300,209 301,210 301,210 301,211 301,212 302,213 302,213 302,214 302,215 302,216 303,216 303,217 303,218 303,219 304,219 304,220 304,221 304,221 304,222 305,223 305,223 305,224 305,224 306,225 306,226 306,226 306,227 306,227 307,228 307,228 307,229 307,230 308,230 308,231 308,231 308,231 308,232 309,232 309,233 309,233 309,234 310,234 310,235 310,235 310,235 310,236 311,236 311,236 311,237 311,237 312,237 312,238 312,238 312,238 312,239 313,239 313,239 313,239 313,240 314,240 314,240 314,240 314,240 314,241 315,241 315,241 315,241 315,241 316,242 316,242 316,242 316,242 316,242 317,242 317,242 317,243 317,243 318,243 318,243 318,243 318,243 318,243 319,243 319,243 319,243 319,243 319,244 320,244 320,244 320,244 320,244 321,244 321,244 321,244 321,244 321,244 322,244 322,244 322,244 322,244 323,244 323,244 323,244 212,244 "/>
<polygon opacity="0.5" fill="#1F78B4" points="75,244 75,244 76,244 77,244 77,244 78,244 79,244 80,244 80,244 81,244 82,244 82,244 83,244 84,244 85,244 85,244 86,244 87,244 87,244 88,244 89,244 90,244 90,244 91,244 92,244 92,244 93,244 94,244 95,244 95,244 96,244 97,244 98,244 98,244 99,244 100,244 100,244 101,243 102,243 103,243 103,243 104,243 105,243 105,243 106,243 107,243 108,243 108,243 109,243 110,243 110,242 111,242 112,242 113,242 113,242 114,242 115,242 116,242 116,242 117,241 118,241 118,241 119,241 120,241 121,241 121,240 122,240 123,240 123,240 124,240 125,240 126,239 126,239 127,239 128,239 128,238 129,238 130,238 131,238 131,237 132,237 133,237 133,237 134,236 135,236 136,236 136,235 137,235 138,235 139,234 139,234 140,234 141,233 141,233 142,233 143,232 144,232 144,232 145,231 146,231 146,230 147,230 148,230 149,229 149,229 150,228 151,228 151,227 152,227 153,226 154,226 154,225 155,225 156,224 157,224 157,223 158,223 159,222 159,222 160,221 161,221 162,220 162,219 163,219 164,218 164,218 165,217 166,216 167,216 167,215 168,215 169,214 169,213 170,213 171,212 172,212 172,211 173,210 174,210 175,209 175,208 176,208 177,207 177,206 178,206 179,205 180,205 180,204 181,203 182,203 182,202 183,201 184,201 185,200 185,200 186,199 187,198 187,198 188,197 189,196 190,196 190,195 191,195 192,194 192,194 193,193 194,193 195,192 195,191 196,191 197,190 198,190 198,189 199,189 200,188 200,188 201,188 202,187 203,187 203,186 204,186 205,186 205,185 206,185 207,185 208,184 208,184 209,184 210,183 210,183 211,183 212,183 213,182 213,182 214,182 215,182 216,182 216,182 217,182 218,181 218,181 219,181 220,181 221,181 221,181 222,181 223,181 223,181 224,181 225,181 226,182 226,182 227,182 228,182 228,182 229,182 230,182 231,183 231,183 232,183 233,183 233,184 234,184 235,184 236,184 236,185 237,185 238,185 239,186 239,186 240,186 241,187 241,187 242,187 243,188 244,188 244,189 245,189 246,189 246,190 247,190 248,191 249,191 249,192 250,192 251,192 251,193 252,193 253,194 254,194 254,195 255,195 256,195 257,196 257,196 258,197 259,197 259,198 260,198 261,198 262,199 262,199 263,200 264,200 264,200 265,201 266,201 267,202 267,202 268,202 269,203 269,203 270,203 271,204 272,204 272,204 273,205 274,205 275,205 275,205 276,206 277,206 277,206 278,206 279,207 280,207 280,207 281,207 282,208 282,208 283,208 284,208 285,208 285,209 286,209 287,209 287,209 288,209 289,209 290,210 290,210 291,210 292,210 292,210 293,210 294,210 295,210 295,211 296,211 297,211 298,211 298,211 299,211 300,211 300,211 301,211 302,211 303,212 303,212 304,212 305,212 305,212 306,212 307,212 308,212 308,213 309,213 310,213 310,213 311,213 312,213 313,213 313,213 314,214 315,214 316,214 316,214 317,214 318,214 318,215 319,215 320,215 321,215 321,215 322,216 323,216 323,216 324,216 325,217 326,217 326,217 327,217 328,217 328,218 329,218 330,218 331,219 331,219 332,219 333,219 333,220 334,220 335,220 336,221 336,221 337,221 338,221 339,222 339,222 340,222 341,223 341,223 342,223 343,224 344,224 344,224 345,225 346,225 346,225 347,226 348,226 349,226 349,227 350,227 351,227 351,228 352,228 353,228 354,229 354,229 355,229 356,230 357,230 357,230 358,231 359,231 359,231 360,232 361,232 362,232 362,233 363,233 364,233 364,234 365,234 366,234 367,234 367,235 368,235 369,235 369,235 370,236 371,236 372,236 372,237 373,237 374,237 375,237 375,237 376,238 377,238 377,238 378,238 379,239 380,239 380,239 381,239 382,239 382,240 383,240 384,240 385,240 385,240 386,240 387,241 387,241 388,241 389,241 390,241 390,241 391,241 392,242 392,242 393,242 394,242 395,242 395,242 396,242 397,242 398,242 398,243 399,243 400,243 400,243 401,243 402,243 403,243 403,243 404,243 405,243 405,243 406,243 407,243 408,244 408,244 409,244 410,244 410,244 411,244 412,244 413,244 413,244 414,244 415,244 416,244 416,244 417,244 418,244 418,244 419,244 420,244 421,244 421,244 422,244 423,244 423,244 424,244 425,244 426,244 426,244 427,244 428,244 428,244 429,244 430,244 431,244 431,244 432,244 433,244 434,244 434,244 75,244 "/>
<polyline fill="none" opacity="1" stroke="#E31A1C" stroke-width="2" points="267,245 267,17 "/>
<polyline fill="none" opacity="1" stroke="#1F78B4" stroke-width="2" points="245,245 245,189 "/>
</svg>
